<svg xmlns="http://www.w3.org/2000/svg" width="300" height="80" viewBox="0 0 300 80" xmlns:xlink="http://www.w3.org/1999/xlink">
  <defs>
    <linearGradient id="bg" x1="0%" y1="0%" x2="100%" y2="100%">
      <stop offset="0%" style="stop-color:#1a1b2e"/>
      <stop offset="100%" style="stop-color:#2d1b4e"/>
    </linearGradient>
  </defs>
  <rect width="300" height="80" rx="12" fill="url(#bg)" stroke="#ff6b9d" stroke-width="1" stroke-opacity="0.3"/>
  <polygon points="18,22 12,4 28,16" fill="#ff6b9d" opacity="0.9"><animate attributeName="opacity" values="0.9;1;0.9" dur="2s" repeatCount="indefinite"/></polygon>
  <polygon points="42,22 48,4 32,16" fill="#ff6b9d" opacity="0.9"><animate attributeName="opacity" values="0.9;1;0.9" dur="2s" repeatCount="indefinite"/></polygon>
  <circle cx="30" cy="38" r="18" fill="#ff6b9d" opacity="0.15"/>
  <circle cx="30" cy="38" r="18" fill="none" stroke="#ff6b9d" stroke-width="1.5" opacity="0.8"/>
  <ellipse cx="24" cy="35" rx="3" ry="4" fill="#c44dff"><animate attributeName="ry" values="4;0.5;4" dur="3s" repeatCount="indefinite"/></ellipse>
  <ellipse cx="36" cy="35" rx="3" ry="4" fill="#c44dff"><animate attributeName="ry" values="4;0.5;4" dur="3s" repeatCount="indefinite"/></ellipse>
  <circle cx="25" cy="33" r="1" fill="white" opacity="0.8"/>
  <circle cx="37" cy="33" r="1" fill="white" opacity="0.8"/>
  <ellipse cx="30" cy="40" rx="2" ry="1.5" fill="#ff6b9d" opacity="0.6"/>
  <path d="M26,43 Q30,47 34,43" fill="none" stroke="#ff6b9d" stroke-width="1" opacity="0.7"><animate attributeName="d" values="M26,43 Q30,47 34,43;M26,43 Q30,45 34,43;M26,43 Q30,47 34,43" dur="4s" repeatCount="indefinite"/></path>
  <line x1="10" y1="38" x2="20" y2="40" stroke="#ff6b9d" stroke-width="0.8" opacity="0.5"/>
  <line x1="10" y1="42" x2="20" y2="42" stroke="#ff6b9d" stroke-width="0.8" opacity="0.5"/>
  <line x1="40" y1="40" x2="50" y2="38" stroke="#ff6b9d" stroke-width="0.8" opacity="0.5"/>
  <line x1="40" y1="42" x2="50" y2="42" stroke="#ff6b9d" stroke-width="0.8" opacity="0.5"/>
  <path d="M48,55 Q60,40 55,30 Q50,20 58,15" fill="none" stroke="#ff6b9d" stroke-width="2" opacity="0.7" stroke-linecap="round"><animate attributeName="d" values="M48,55 Q60,40 55,30 Q50,20 58,15;M48,55 Q62,42 57,32 Q52,22 60,17;M48,55 Q60,40 55,30 Q50,20 58,15" dur="3s" repeatCount="indefinite"/></path>
  <text x="80" y="26" font-family="'Segoe UI',Arial,sans-serif" font-size="11" fill="#8888aa">Welcome to my profile~</text>
  <image x="80" y="34" width="120" height="24" href="https://komarev.com/ghpvc/?username=Yuzcen&style=flat-square&color=ff6b9d&label=Visitors" />
  <text x="215" y="26" font-size="10" opacity="0.6">✨</text>
  <text x="260" y="50" font-size="8" opacity="0.4">⭐</text>
  <text x="240" y="20" font-size="6" opacity="0.3">✨</text>
</svg>
